<?xml version="1.0" encoding="UTF-8" standalone="no"?>
<!-- Created with Inkscape (http://www.inkscape.org/) -->

<svg
   xmlns:dc="http://purl.org/dc/elements/1.1/"
   xmlns:cc="http://creativecommons.org/ns#"
   xmlns:rdf="http://www.w3.org/1999/02/22-rdf-syntax-ns#"
   xmlns:svg="http://www.w3.org/2000/svg"
   xmlns="http://www.w3.org/2000/svg"
   xmlns:sodipodi="http://sodipodi.sourceforge.net/DTD/sodipodi-0.dtd"
   xmlns:inkscape="http://www.inkscape.org/namespaces/inkscape"
   width="744.09448819"
   height="1052.3622047"
   id="svg2"
   version="1.1"
   inkscape:version="0.48.4 r9939"
   sodipodi:docname="signature.svg"
   inkscape:export-filename="/home/daniel/Web/www/jekyllsite/media/images/logo.png"
   inkscape:export-xdpi="90"
   inkscape:export-ydpi="90">
  <defs
     id="defs4" />
  <sodipodi:namedview
     id="base"
     pagecolor="#ffffff"
     bordercolor="#666666"
     borderopacity="1.0"
     inkscape:pageopacity="0.0"
     inkscape:pageshadow="2"
     inkscape:zoom="0.98994949"
     inkscape:cx="445.05168"
     inkscape:cy="625.37645"
     inkscape:document-units="px"
     inkscape:current-layer="layer1"
     showgrid="false"
     inkscape:window-width="1920"
     inkscape:window-height="1030"
     inkscape:window-x="0"
     inkscape:window-y="25"
     inkscape:window-maximized="1" />
  <metadata
     id="metadata7">
    <rdf:RDF>
      <cc:Work
         rdf:about="">
        <dc:format>image/svg+xml</dc:format>
        <dc:type
           rdf:resource="http://purl.org/dc/dcmitype/StillImage" />
        <dc:title></dc:title>
      </cc:Work>
    </rdf:RDF>
  </metadata>
  <g
     inkscape:label="Layer 1"
     inkscape:groupmode="layer"
     id="layer1">
    <path
       style="fill:#000000;fill-opacity:1;fill-rule:nonzero;stroke:none"
       id="path3009"
       d="m -377.76974,244.62291 c 2.58354,4.31444 5.64059,8.30429 9.03554,12.0053 3.08345,3.36972 6.49934,6.38087 10.36501,8.81503 3.12447,1.78237 5.33272,2.43074 8.96507,2.1853 3.07876,-0.40426 5.99216,-1.62924 8.70647,-3.10216 0.64025,-0.34743 2.5174,-1.46709 1.8834,-1.10836 -3.679,2.08161 -7.34576,4.18477 -11.01863,6.27716 2.16086,-1.3463 3.71543,-3.28588 4.90757,-5.49885 0.65822,-1.83046 1.32351,-3.66151 1.96074,-5.50027 1.02907,-2.89913 -1.92757,-2.9848 -4.0621,-3.37685 -2.78645,-0.31853 -5.59816,-0.69085 -8.40458,-0.31132 -4.60341,0.62256 -9.1768,2.23501 -13.6143,3.52519 -14.339,4.56449 -28.99184,7.98477 -43.64353,11.36149 -15.95281,3.84274 -32.06034,6.99868 -47.96134,11.05335 -2.09869,0.60287 -4.20563,1.17777 -6.29608,1.80862 -4.23082,1.27674 -5.5498,1.75151 -9.50505,3.22819 -2.68051,1.00076 -5.20419,2.1152 -7.99992,2.72396 -0.50667,-0.0741 -1.0687,0.0195 -1.52001,-0.22245 -2.7697,-1.48484 -1.45008,-5.6892 -0.98044,-7.92571 0.24647,-1.17371 0.50272,-2.34534 0.75408,-3.51802 2.97619,-12.12477 6.4206,-24.12774 10.23595,-36.01336 3.01409,-8.00713 5.29825,-17.36144 10.08617,-24.57485 0.52818,-0.79574 1.17107,-1.50908 1.7566,-2.26363 5.12447,-4.68064 11.227,-10.31976 18.38239,-10.21653 2.26726,0.0327 4.33521,0.87751 6.3871,1.72736 8.47498,4.31759 15.25624,11.21519 22.03972,17.73361 15.62574,15.05455 30.43852,30.91193 45.5399,46.48471 14.14449,14.33545 28.02614,29.04352 43.7213,41.72892 12.58465,10.17138 16.16552,12.08825 29.83155,21.19263 24.40593,15.2665 51.03211,26.65281 79.12624,33.09352 21.10069,4.83744 26.90401,4.62824 48.52744,6.60678 8.25297,0.0269 16.51335,0.43152 24.75891,0.0808 21.87895,-0.93055 43.98788,-4.51804 64.382869,-12.76708 15.57572,-6.29982 12.88401,-3.98948 19.06743,-11.20517 3.53665,-3.50021 7.4196,-6.68213 10.60995,-10.50063 9.34288,-11.18242 14.32035,-24.45644 15.07453,-38.97952 0.73963,-14.24296 -1.25409,-19.51322 -4.03729,-33.65052 -7.35017,-26.38646 -19.54854,-51.21282 -37.25022,-72.23568 -11.52482,-13.68709 -15.84458,-16.32462 -29.449359,-27.76301 -5.54876,-3.7201 -10.91136,-7.73413 -16.64627,-11.16029 -16.50055,-9.85778 -34.55049,-17.27173 -53.12403,-22.15117 -6.20848,-1.63103 -12.47209,-3.12511 -18.81878,-4.0869 -6.42179,-0.97317 -12.94031,-1.13762 -19.41047,-1.70643 -20.33408,-0.28936 -40.39006,2.86535 -59.56467,9.69942 -6.25772,2.23032 -12.32109,4.99052 -18.33073,7.82206 -6.21228,2.92701 -17.36752,12.61171 -20.44789,15.03074 -4.14869,4.35346 -8.64655,8.39907 -12.44607,13.06038 -10.30673,12.64449 -17.98455,27.65587 -20.28201,43.9387 -1.78971,12.68425 -0.28472,15.60372 1.91421,27.85473 0,0 -11.71714,6.23458 -11.71714,6.23458 l 0,0 c -2.24295,-12.50979 -3.77099,-15.4876 -1.97559,-28.43601 2.28937,-16.51089 9.99084,-31.80273 20.34511,-44.70098 3.79317,-4.72513 8.29339,-8.83628 12.44008,-13.25441 4.86563,-3.88325 9.38759,-8.24135 14.59689,-11.64975 14.72484,-9.63434 29.20556,-17.71227 45.71333,-23.45511 19.32024,-6.72126 39.49856,-9.78961 59.9332,-9.40023 6.50905,0.60521 13.06763,0.81136 19.52715,1.81564 6.37629,0.99134 12.67115,2.49823 18.90647,4.15974 18.64425,4.96807 36.68312,12.54557 53.20827,22.52947 5.75034,3.47415 11.1326,7.52392 16.698899,11.28588 13.63291,11.53316 18.01966,14.24424 29.56027,28.02866 17.72335,21.16927 29.98659,46.18444 37.83261,72.53776 3.01802,14.1463 5.12383,19.52932 4.62633,33.84615 -0.52151,15.00811 -5.2286,28.12917 -14.76629,39.77075 -3.21293,3.92166 -7.14325,7.19605 -10.71488,10.79408 -15.57539,9.9797 -24.52899,17.15097 -40.90321,23.54855 -28.253269,11.03884 -58.906119,12.96401 -88.902619,11.8994 -21.7145,-2.01151 -27.61543,-1.82877 -48.82136,-6.6612 -28.3094,-6.45117 -55.18278,-17.80378 -79.83332,-33.08679 -13.93329,-9.16168 -17.32978,-10.9292 -30.1819,-21.15636 -15.85494,-12.61667 -29.88802,-27.27909 -44.18143,-41.58193 -15.26488,-15.46939 -30.26032,-31.21698 -46.18032,-46.02271 -6.85646,-6.2897 -13.74696,-12.96261 -22.31142,-16.8836 -1.92616,-0.66001 -3.86811,-1.36013 -5.95108,-1.03377 -0.60727,0.0952 -2.28121,0.86434 -1.7669,0.52773 22.62619,-14.80884 12.08942,-7.36147 8.85614,-5.05146 -0.64329,0.69985 -1.35315,1.3439 -1.92985,2.09956 -1.63521,2.14259 -2.81082,4.5165 -3.95479,6.94543 -2.67063,5.67042 -4.74356,11.58481 -6.73149,17.52163 -3.79636,11.73782 -7.1266,23.61677 -9.85698,35.65067 -0.14663,0.78459 -1.8065,7.90396 -1.43755,8.70797 0.30282,0.65989 1.4291,0.34582 1.81158,0.32005 2.60755,-0.72638 5.09185,-1.73611 7.64585,-2.6321 5.11181,-1.79332 10.30211,-3.34369 15.55369,-4.67606 15.89805,-3.92183 31.95935,-7.13028 47.88051,-10.95841 14.75991,-3.41681 29.47999,-7.01517 43.9102,-11.66534 4.59733,-1.33329 9.2818,-2.93882 14.07659,-3.41708 2.92435,-0.29169 5.86377,0.11194 8.75249,0.51118 2.7931,0.69199 6.33372,1.82783 5.42244,5.46399 -0.56315,1.90934 -1.41968,3.7137 -1.87691,5.65587 -0.95714,2.48333 -2.60984,4.70655 -4.70702,6.34382 -4.80212,2.81755 -9.58956,5.66026 -14.40636,8.45263 -3.37686,1.95762 -7.13088,3.36885 -11.04243,3.63906 -3.60898,-0.0979 -6.49538,-0.86825 -9.51073,-2.89457 -3.84751,-2.63869 -7.30109,-5.75282 -10.44025,-9.2063 -3.44785,-3.81719 -6.55724,-7.90075 -9.3911,-12.19496 0,0 12.98845,-7.47034 12.98845,-7.47034 z"
       inkscape:connector-curvature="0" />
    <path
       style="fill:#000000;fill-opacity:1;fill-rule:nonzero;stroke:none"
       id="path3023"
       d="m 219.30178,437.35175 c 3.09781,3.49867 5.61586,7.45267 8.46127,11.1436 2.84697,3.69297 3.41232,4.11147 6.62376,7.48628 3.66316,3.4255 6.93994,7.41193 11.0852,10.30088 1.67923,1.17031 2.18201,1.25934 4.01452,1.99839 1.7953,0.64791 3.52842,0.69508 5.33875,0.0928 0.50159,-0.16687 1.91023,-0.90123 1.45199,-0.63768 -12.77535,7.3475 -14.87013,9.26155 -10.42208,5.47472 2.61779,-3.17239 2.74198,-7.46212 3.0016,-11.38906 -0.27536,-6.85404 -2.83879,-6.83216 -9.20257,-7.59569 -1.91702,0.13106 -3.8478,0.12903 -5.75105,0.39319 -8.60877,1.19484 -16.86183,4.48545 -24.64784,8.23642 -11.50424,5.54225 -14.22281,5.43674 -9.87801,5.48332 -11.91896,7.57518 -23.02478,16.35841 -33.61258,25.68479 -8.37053,7.37327 -11.74774,11.01464 -19.83669,18.51031 -2.92287,2.70849 -5.912,5.34458 -8.86799,8.01687 -6.56043,5.58729 -13.31927,11.10467 -20.93331,15.2257 -6.13714,3.32168 -14.57651,10.21661 -22.956124,9.73991 -1.74859,-0.0995 -3.41519,-0.77866 -5.12278,-1.16799 -1.70956,-1.13288 -3.57834,-2.05608 -5.12869,-3.39863 -3.89832,-3.37583 -8.1259,-9.1162 -10.88641,-13.25545 -3.49282,-5.2373 -8.54995,-14.12836 -11.37614,-19.63141 -1.8515,-3.60519 -3.50501,-7.30868 -5.25752,-10.96301 -7.49444,-17.33071 -13.45829,-35.48945 -16.32097,-54.20315 -0.45894,-3.00017 -0.69346,-6.0304 -1.04019,-9.0456 -0.56941,-10.29312 0.11482,-20.78838 4.62191,-30.23332 2.29129,-4.80158 3.61336,-5.9907 6.84932,-10.0172 1.2585,-1.21121 2.42243,-2.52906 3.77548,-3.63364 1.28492,-1.04896 2.66687,-1.98779 4.11068,-2.80431 6.44975,-3.64752 13.85126,-9.17171 21.81872,-10.29676 4.83042,-0.68207 6.92358,-0.0856 11.82096,0.50113 2.39223,0.63378 4.83805,1.09191 7.17669,1.90135 11.415714,3.95115 21.986314,10.52486 32.076054,17.01618 11.79154,7.58618 23.00759,15.61355 34.50859,23.65134 7.20887,5.14535 14.43095,10.27225 21.62662,15.43606 22.7985,16.36081 25.92604,18.8913 49.26424,35.17391 25.47492,17.77336 51.25282,35.09313 77.12802,52.27513 27.92612,17.74439 56.20328,35.17503 86.45431,48.72945 5.07357,2.27329 10.16468,4.53538 15.40382,6.39559 4.14253,1.47084 8.46161,2.38683 12.69241,3.58025 3.65225,0.34124 7.2944,1.22991 10.95676,1.02372 6.53976,-0.3682 15.38403,-3.53426 20.50482,-7.54162 0.55809,-0.43674 -1.59398,-1.16708 -1.19913,-1.75557 2.80697,-4.18357 6.65861,-7.56228 9.98792,-11.34343 2.84893,-4.57436 5.69785,-9.14872 8.54678,-13.72308 2.2721,-5.19033 4.94677,-10.22246 6.8163,-15.571 3.71007,-10.61413 6.12894,-23.04223 6.76613,-34.26329 0.32698,-5.75819 -0.17484,-11.53362 -0.26226,-17.30043 0,0 11.38894,-5.82707 11.38894,-5.82707 l 0,0 c 0.1073,5.82449 0.62671,11.65597 0.32188,17.47347 -0.5856,11.17603 -2.97044,23.94471 -6.54352,34.55613 -1.81221,5.38197 -4.42365,10.46089 -6.63547,15.69134 -2.7749,4.61944 -5.20098,9.46722 -8.32468,13.85832 -9.666,13.58785 -15.74399,16.80312 -31.45984,26.68311 -6.4338,4.0447 -13.35864,6.80635 -21.04946,6.97187 -3.64921,0.0785 -7.24104,-0.92675 -10.86156,-1.39013 -4.12861,-1.32281 -8.34647,-2.39398 -12.38582,-3.96843 -5.1123,-1.99267 -10.07494,-4.35601 -15.02796,-6.71689 -29.76041,-14.18543 -57.6903,-31.80716 -85.3741,-49.61774 -25.81715,-17.26234 -51.53382,-34.66995 -77.07252,-52.34303 -35.52612,-24.58449 -15.15351,-10.78133 -49.76552,-34.85275 -7.31862,-5.08984 -14.68767,-10.10678 -22.03151,-15.16016 -13.36635,-8.89986 -21.95064,-14.84768 -35.38944,-22.99035 -10.32999,-6.25902 -21.081484,-12.53611 -32.705364,-16.11414 -2.34878,-0.723 -4.79089,-1.09787 -7.18634,-1.64681 -5.0178,-0.4001 -6.76958,-0.89846 -11.63948,0.0165 -1.65234,0.31044 -5.91707,2.71066 -4.83973,1.41995 2.0338,-2.43664 5.37821,-3.37617 7.98445,-5.18753 2.7837,-1.93471 -12.00529,7.22156 -8.15437,6.07741 -3.31625,3.81829 -4.77406,5.06441 -7.17836,9.67791 -4.78688,9.18533 -5.53531,19.56774 -5.18027,29.73655 0.29878,3.00268 0.4832,6.01895 0.89634,9.00805 2.58079,18.67221 8.35334,36.79456 15.87841,54.02604 1.75341,3.62325 3.39647,7.30202 5.26024,10.86976 2.92985,5.60848 7.8724,14.0399 11.55902,19.3044 2.80142,4.00045 7.03923,9.42018 11.01233,12.57113 1.49412,1.18495 3.2887,1.93145 4.93305,2.89717 1.611214,0.26389 3.200964,0.79391 4.833644,0.79168 1.68408,-0.002 5.69418,-2.33381 4.98768,-0.80509 -1.16962,2.53081 -5.61395,2.30959 -6.84017,4.81347 -1.06272,2.17003 4.23351,-2.33776 6.26694,-3.64297 6.82549,-4.38108 8.82487,-6.30359 15.38007,-11.57535 3.01022,-2.68175 6.06157,-5.31805 9.03066,-8.04527 8.45299,-7.76437 11.25394,-10.92445 19.94626,-18.63316 10.52394,-9.33308 21.53789,-18.16461 33.35731,-25.81407 16.16605,-9.53066 32.74623,-20.84465 51.23243,-25.69054 5.95885,-1.56203 7.63086,-1.36874 13.44306,-1.64586 1.49924,0.22988 3.03243,0.29789 4.49773,0.68963 4.82894,1.291 5.81909,4.18954 6.07688,8.64287 -0.22566,4.17053 -0.33527,8.60641 -2.47953,12.30918 -4.37249,5.4347 -1.2463,1.86677 -15.15267,9.43702 -0.71348,0.38839 -2.63676,0.55766 -3.38833,0.52843 -1.77799,-0.0692 -2.28481,-0.37344 -3.98719,-0.93299 -1.93555,-0.92984 -2.40583,-1.03942 -4.16765,-2.38675 -4.03428,-3.08517 -7.25024,-7.13303 -10.91738,-10.60874 -1.16858,-1.2371 -2.378,-2.43685 -3.50574,-3.71128 -4.22724,-4.77714 -7.64903,-10.21813 -12.11415,-14.79504 0,0 12.88951,-7.64928 12.88951,-7.64928 z"
       inkscape:connector-curvature="0"
       inkscape:export-filename="/home/daniel/Web/www/jekyllsite/media/images/logo.png"
       inkscape:export-xdpi="90"
       inkscape:export-ydpi="90" />
    <path
       style="fill:#000000;fill-opacity:1;fill-rule:nonzero;stroke:none"
       id="path3071"
       d="m 860.97205,144.9632 c 4.99281,3.51115 10.58172,5.99633 16.22127,8.25935 5.29837,1.78687 10.86058,3.69498 16.52068,3.37552 1.91266,-0.38576 2.12687,-0.28377 3.8515,-1.19612 0.60991,-0.32264 2.35603,-1.43565 1.75066,-1.10456 -16.95921,9.27538 -12.08739,7.83612 -7.64022,3.0244 2.18366,-2.96785 3.50949,-6.66836 3.43159,-10.37376 -0.15222,-0.27097 -0.2303,-0.59994 -0.45667,-0.81289 -2.69476,-2.53508 -9.17289,0.1441 -11.81264,1.13447 2.04141,-1.52312 -12.2842,6.37644 -9.17427,4.85877 2.38585,-1.16432 4.35872,-3.42796 6.98284,-3.83031 2.19593,-0.33669 -3.7394,2.39987 -5.59735,3.61788 -5.85238,3.83661 -5.88403,3.91242 -11.70758,7.93914 -11.83012,8.35278 -24.0944,16.49345 -37.5797,21.93143 -6.26222,2.52526 -7.83996,2.71738 -14.36244,4.42777 -14.19298,3.44417 -28.7668,2.63569 -43.20362,1.89255 -4.36985,-0.66147 -12.89139,0.26085 -16.69912,-2.27975 -0.64863,-0.43279 -1.14554,-1.05824 -1.71831,-1.58736 -0.43987,-0.72991 -0.96911,-1.41294 -1.31961,-2.18974 -3.55238,-7.87309 1.16373,-15.76164 4.88301,-22.5093 6.42367,-9.94091 14.5805,-18.57301 24.37674,-25.24986 6.61633,-4.5095 23.31909,-13.01932 27.21024,-15.10383 9.49661,-3.76432 19.58068,-6.51989 29.90899,-5.68734 7.94483,0.64042 11.48317,2.18669 19.30278,4.51578 4.04482,1.79991 8.17535,3.41836 12.13445,5.39972 11.16438,5.58729 19.67443,11.02166 30.18807,17.98564 21.65635,14.34466 42.20506,30.15187 62.87909,45.85474 37.00157,28.64285 75.57637,55.4587 116.93667,77.48074 9.6635,5.14532 19.4527,10.08135 29.465,14.50988 8.9144,3.94288 18.1741,7.05366 27.2611,10.58049 8.3118,1.99918 16.4953,4.63877 24.9355,5.99752 20.4179,3.28699 41.8904,2.11057 60.3218,-8.13802 1.6801,-0.93418 2.26,-3.11083 3.4304,-4.63577 3.6586,-4.76689 7.3707,-9.49253 11.0561,-14.2388 2.5085,-5.77565 5.7711,-11.27941 7.5254,-17.32695 8.8582,-30.53572 -0.1736,-63.36094 -12.0239,-91.6662 -3.7281,-8.90459 -8.2946,-17.43447 -12.4418,-26.15171 -4.9925,-8.57214 -9.9849,-17.14429 -14.9773,-25.71644 0,0 9.6172,-5.55969 9.6172,-5.55969 l 0,0 c 5.0386,8.58008 10.0772,17.16015 15.1158,25.74022 4.2477,8.70336 8.9051,17.21842 12.743,26.11007 12.2212,28.3139 21.7947,61.15812 13.3966,91.98686 -1.6665,6.11769 -4.8608,11.71265 -7.2913,17.56897 -3.636,4.84885 -6.3541,10.5474 -10.9081,14.54656 -11.4081,10.01823 -27.2976,20.06418 -42.6622,23.75012 -14.1437,3.39305 -28.2942,2.92334 -42.5224,0.3666 -8.3447,-1.4995 -16.4115,-4.26525 -24.6173,-6.39788 -8.9674,-3.6436 -18.1028,-6.89808 -26.902,-10.93081 -9.9095,-4.54164 -19.5917,-9.57832 -29.1765,-14.77039 -41.3103,-22.37777 -80.15537,-48.97698 -117.6854,-77.15511 -21.04081,-15.45762 -41.95954,-31.0163 -64.02578,-45.00286 -10.58608,-6.70993 -19.48904,-12.11137 -30.74517,-17.38505 -4.01934,-1.88312 -8.20917,-3.37853 -12.31375,-5.06779 -8.05063,-2.15221 -11.30061,-3.51666 -19.39134,-3.95079 -10.21248,-0.54799 -20.1489,2.29113 -29.49126,6.11836 1.46164,-1.08392 6.09083,-3.88515 4.38492,-3.25177 -2.7943,1.03748 -5.2398,2.85703 -7.73074,4.49402 -9.76982,6.42052 -17.90297,14.79838 -24.28695,24.5722 -3.88971,6.868 -9.00666,15.05586 -3.93733,22.65471 0.48638,0.39589 0.91496,0.87598 1.45915,1.18769 1.22224,0.70007 2.89342,0.94608 4.23405,1.13996 3.89929,0.56392 7.84813,0.66385 11.767,1.01805 14.3007,0.89762 28.72536,1.49073 42.74806,-2.12376 6.47296,-1.80181 8.01351,-2.01053 14.21717,-4.61462 2.30876,-0.96913 4.3609,-3.74379 6.80214,-3.18706 2.14529,0.48924 -7.18778,5.00397 -5.62432,3.45567 3.47283,-3.43914 8.89021,-4.4534 12.14444,-8.21624 5.63826,-3.93872 11.27178,-8.00772 17.15545,-11.57862 5.8107,-3.5266 11.67814,-6.95924 17.55007,-10.38292 1.63944,-0.9559 3.28762,-1.90091 4.98241,-2.75485 1.47415,-0.74277 3.01091,-1.35415 4.51637,-2.03123 3.76599,-1.21554 10.08757,-3.45355 13.28897,0.3769 0.3415,0.40861 0.50371,0.9384 0.75557,1.4076 0.33007,3.97025 -1.04853,8.06091 -3.04952,11.44788 -4.84815,6.14261 -9.27887,7.22505 -17.60495,12.10134 -1.86355,1.09141 -3.8915,1.61901 -6.04043,1.70824 -5.75437,-0.20875 -11.31742,-1.97186 -16.68115,-3.9701 -5.76195,-2.3425 -11.42911,-4.93902 -16.66116,-8.33266 0,0 12.61133,-8.0749 12.61133,-8.0749 z"
       inkscape:connector-curvature="0" />
    <path
       style="fill:#000000;fill-opacity:1;fill-rule:nonzero;stroke:none"
       id="path3113"
       d="m 280.4641,468.33942 c -3.58585,-1.11244 -7.26674,-1.82038 -10.99313,-2.23129 -0.20367,-0.0164 -2.67356,-0.22826 -2.94865,-0.2015 -0.37603,0.0366 -0.72483,0.21348 -1.08724,0.32022 4.04837,-2.22964 8.06854,-4.51126 12.14509,-6.68894 0.29692,-0.15862 -0.57286,0.37052 -0.79337,0.62488 -0.23587,0.27209 -0.3686,0.61872 -0.55289,0.92808 -0.83892,2.1215 -0.85126,4.42641 -0.87851,6.67431 0.27354,2.26925 2.37916,2.68551 4.28747,3.06601 3.42201,0.65094 4.71848,0.1951 7.81052,-1.20167 2.69461,-1.35953 5.27174,-2.93999 7.97078,-4.28774 0.36379,-0.20726 1.45435,-0.83046 1.09137,-0.62178 -3.93998,2.26504 -7.86592,4.55476 -11.82239,6.7909 -0.58539,0.33085 1.05294,-0.84733 1.64148,-1.17253 4.52209,-2.49867 8.96366,-5.16108 13.62696,-7.38511 0.26515,-0.12645 0.45222,0.37507 0.67833,0.56261 0.90183,1.79902 1.91424,3.38288 3.29856,4.85312 1.80674,2.05703 4.24781,3.05269 6.8815,3.51989 2.51263,0.18384 5.19656,0.70576 7.6367,-0.0555 4.69217,-2.38847 6.83835,-3.50101 -10.82562,6.17394 -0.3631,0.19888 0.69318,-0.46043 0.99325,-0.74565 0.97611,-0.92781 1.49159,-2.15057 2.06464,-3.33775 2.99857,-5.64962 6.73068,-5.41644 14.91495,-9.28027 0.67032,-0.31646 2.32348,1.7633 2.69735,2.13852 1.56524,1.76618 2.59174,3.45957 4.82518,4.41615 1.3447,0.17211 2.22015,-0.32343 3.30644,-1.01804 0.38042,-0.24326 1.54055,-0.94196 1.14622,-0.72196 -11.98822,6.68851 -15.08076,9.82125 -10.82066,5.72233 4.31789,-4.34395 10.63445,-12.44099 16.66045,-9.37387 1.00018,0.50907 1.26625,0.86935 2.10444,1.64248 2.38622,2.64663 4.88656,5.18197 7.30752,7.79596 1.23664,1.13688 3.08105,3.12408 5.00039,2.39628 0.36266,-0.13752 0.66163,-0.40493 0.99244,-0.60739 -22.83547,12.33505 -13.0033,8.73233 -9.79969,4.76231 0.86142,-1.06749 1.53566,-2.29022 2.28129,-3.43797 3.93281,-4.69867 1.98672,-2.57271 14.37117,-8.46843 0.71414,-0.33998 2.86273,3.21259 3.162,3.70807 0.98238,2.2294 2.23961,4.1105 4.24517,5.50849 1.79255,0.86456 3.69914,1.48242 5.65823,1.83824 1.50089,0.28336 3.53218,1.53452 5.05018,0.72807 0.3788,-0.20124 0.66587,-0.54089 0.9988,-0.81133 -20.35654,11.92434 -12.21798,8.11274 -8.71678,3.48768 2.19659,-2.90169 3.57436,-6.03636 4.99363,-9.3671 5.63594,-15.4899 7.31009,-31.9991 8.74643,-48.30573 1.23134,-19.96041 -1.03392,-39.89524 -5.17846,-59.3991 -1.71191,-0.89952 -0.39263,-5.20002 -2.30266,-6.45089 -0.31818,-0.20838 -1.02177,1.06574 -0.66856,0.92465 3.95199,-1.57857 7.38725,-4.81893 11.61586,-5.29742 1.48677,-0.16823 -1.14531,2.76563 -1.65941,4.1708 -0.72203,1.9735 -1.3653,3.97493 -2.04795,5.96239 -4.67448,14.90497 -9.65246,29.74378 -13.78373,44.81349 -3.60745,13.15896 -4.45483,17.9558 -7.37767,31.41686 -5.69992,29.17943 -8.71461,58.76155 -10.5317,88.40687 -0.057,5.80402 -0.78884,11.62124 -0.70681,17.43194 0.007,0.5045 0.067,1.00971 0.16505,1.50464 0.01,0.0493 0.18795,0.0264 0.14279,0.0485 -4.31178,2.10811 -8.65445,4.15245 -12.98168,6.22868 0.22468,-0.34922 0.47262,-0.68454 0.67405,-1.04768 1.22859,-2.21492 0.26307,-0.89291 1.67363,-3.24162 1.06769,-1.7778 2.34802,-3.28292 3.77811,-4.77019 7.02586,-6.18342 15.29668,-10.49649 24.40796,-11.8767 10.35084,-0.8132 20.73881,-1.25282 31.09289,-2.04804 4.54977,-0.34943 9.08917,-0.82283 13.63376,-1.23425 24.43617,-2.30281 48.4424,-7.85549 71.9044,-14.9456 11.59854,-3.50502 20.62023,-6.86352 31.91787,-10.89213 3.9308,-1.51199 15.96884,-6.0956 20.63197,-8.03946 1.88295,-0.78492 7.26795,-3.65635 5.58378,-2.50518 -3.39143,1.88096 -6.78285,3.76192 -10.17428,5.64288 0.0968,-0.12894 0.4483,-0.35421 0.2904,-0.38682 -0.42334,-0.0874 -0.85604,0.12106 -1.28405,0.18158 -1.04964,-0.22272 -2.09927,-0.44545 -3.1489,-0.66818 0,0 12.26469,-8.50858 12.26469,-8.50858 l 0,0 c 1.11101,0.25596 2.22201,0.51191 3.33302,0.76786 1.32822,0.84039 4.08986,2.05886 2.47341,3.19566 -4.83323,3.39905 -10.11963,6.11142 -15.31472,8.92652 -1.73527,0.9403 -3.61501,1.58687 -5.44614,2.32329 -4.92107,1.97907 -16.03949,6.12479 -20.32393,7.73764 -11.46955,4.0189 -19.95893,7.13165 -31.76218,10.64932 -23.63759,7.04459 -47.78811,12.58883 -72.36992,14.98419 -15.07879,1.43199 -30.19827,2.42146 -45.2732,3.83878 -2.18196,0.43687 -4.30014,0.90566 -6.36572,1.75984 -0.58794,0.24312 -2.26894,1.14675 -1.72542,0.81605 14.36132,-8.73816 14.25638,-8.72744 9.54657,-5.42926 -2.78593,2.39642 -4.91641,5.31908 -6.14403,8.8078 -4.63428,2.47717 -9.13341,5.22574 -13.90285,7.4315 -0.27652,0.12789 -0.39359,-0.49026 -0.46616,-0.78615 -0.13992,-0.57051 -0.1656,-1.16788 -0.15711,-1.75524 0.0853,-5.90048 1.10744,-11.79 1.16322,-17.69095 2.11144,-29.7439 5.17838,-59.43559 10.76669,-88.75325 2.82874,-13.2974 3.73927,-18.44014 7.21616,-31.45395 4.00416,-14.98741 8.85868,-29.74588 13.2501,-44.62065 0.64113,-1.98284 1.27621,-3.96765 1.92339,-5.94853 0.47322,-1.4484 0.30904,-3.31564 1.43777,-4.33924 4.25192,-3.8559 9.19044,-6.92559 14.15703,-9.80306 0.50128,-0.29043 1.22025,0.23723 1.60265,0.67243 1.0786,1.22758 2.02737,6.13361 2.22448,6.91615 3.88144,19.70229 6.18239,39.78468 5.1312,59.89254 -1.3236,16.35141 -2.88668,32.8789 -8.164,48.51645 -1.33213,3.43439 -2.63813,6.62286 -4.69947,9.68768 -0.30988,0.46072 -2.03017,2.92305 -2.6613,3.32838 -4.63398,2.97609 -9.44558,5.66611 -14.16837,8.49916 -0.45298,0.12098 -0.89294,0.31133 -1.35895,0.36293 -1.81064,0.2005 -3.56598,-0.81616 -5.31304,-1.08243 -2.09449,-0.51797 -4.19198,-1.20402 -6.01444,-2.38298 -2.03353,-1.62283 -3.48818,-3.60975 -4.5295,-6.00354 -0.18281,-0.29572 -0.90771,-1.51564 -1.20789,-1.84642 -0.61473,-0.67737 -0.93689,-0.15728 -0.87712,-0.19299 11.33991,-6.77395 16.59044,-9.38028 11.39211,-6.77565 -0.8492,1.13887 -1.46888,2.36307 -2.24756,3.54497 -3.73914,5.67538 -8.57222,6.74412 -15.94539,10.38822 -0.44205,0.0563 -0.88075,0.18306 -1.32616,0.16903 -2.29629,-0.0723 -4.10799,-1.90103 -5.62433,-3.39639 -2.37258,-2.57671 -4.79416,-5.11093 -7.23126,-7.6249 -0.48387,-0.36403 -0.9603,-0.88135 -1.63407,-0.88235 -0.20439,-3e-4 -0.7456,0.33002 -0.57073,0.22419 21.13014,-12.78922 13.81159,-9.33217 10.11108,-5.4015 -4.37589,5.22005 -0.7486,1.13048 -14.78848,9.54853 -1.68577,1.01075 -3.47285,1.27129 -5.32337,0.55879 -2.11579,-1.20299 -3.51337,-2.97496 -5.08323,-4.7943 -0.25748,-0.24013 -0.86359,-0.90195 -1.29667,-1.00968 -0.20342,-0.0506 -0.80599,0.1515 -0.62746,0.0417 4.04924,-2.4913 8.22541,-4.77097 12.29885,-7.22249 0.23835,-0.14345 -0.57019,0.11105 -0.78206,0.29133 -0.28406,0.2417 -0.4263,0.61215 -0.63945,0.91822 -0.62121,1.26016 -1.05551,2.66433 -1.85048,3.83078 -3.52003,5.16497 -10.15378,7.77364 -16.11945,9.38625 -2.66416,0.23194 -5.36726,0.0536 -7.99452,-0.44528 -2.83104,-0.75115 -5.40962,-2.03963 -7.37414,-4.27873 -1.21099,-1.30964 -2.32397,-2.65994 -3.0284,-4.31513 -2.69097,4.25812 -0.31342,0.4268 12.38225,-6.95895 0.24701,-0.14369 -0.55116,0.17856 -0.78702,0.3399 -0.33141,0.22668 -0.54832,0.60218 -0.89252,0.80893 -10.16458,6.10568 -9.53234,5.75114 -15.06702,8.70277 -2.65079,1.44156 -5.2782,2.94001 -8.04048,4.16154 -3.01699,1.09754 -5.26479,1.24833 -8.39361,0.45255 -2.56274,-0.75747 -4.74665,-1.95963 -5.32582,-4.78477 0.005,-2.42081 0.015,-4.86833 0.6166,-7.23025 2.47111,-7.61153 11.76567,-11.22319 19.21077,-9.95098 3.78071,0.51532 7.50287,1.33742 11.16256,2.42275 0,0 -12.44212,8.49702 -12.44212,8.49702 z"
       inkscape:connector-curvature="0"
       inkscape:export-xdpi="90"
       inkscape:export-ydpi="90"
       inkscape:export-filename="/home/daniel/Web/www/jekyllsite/media/images/logo.png" />
    <path
       style="fill:#000000;fill-opacity:1;fill-rule:nonzero;stroke:none"
       id="path3115"
       d="m 309.64005,427.13649 c 1.07902,-3.04866 2.64814,-5.88815 3.97832,-8.83807 0,0 13.51325,-6.20567 13.51325,-6.20567 l 0,0 c -1.2002,2.90945 -2.53261,5.66172 -3.93285,8.46903 0,0 -13.55872,6.57471 -13.55872,6.57471 z"
       inkscape:connector-curvature="0"
       inkscape:export-filename="/home/daniel/Web/www/jekyllsite/media/images/logo.png"
       inkscape:export-xdpi="90"
       inkscape:export-ydpi="90" />
    <path
       style="fill:#000000"
       id="path3199"
       d="m 409.4356,376.10634 c 6.3721,18.43228 13.40865,36.62313 19.93785,54.99878 1.36234,3.95004 2.79026,7.87807 4.08702,11.85012 2.84105,8.70228 4.0356,13.18263 6.37002,21.86456 1.23193,4.58161 2.83734,11.21168 4.41232,15.88638 0.48574,1.44175 1.13431,2.82343 1.70147,4.23514 4.26953,2.90057 6.93831,4.11824 -10.19084,6.16126 -1.48441,0.17705 1.44143,-2.63125 1.96409,-4.03183 0.78866,-2.1134 1.34177,-4.30788 1.95783,-6.47788 1.81751,-6.40195 3.48075,-12.8467 5.22985,-19.26768 10.80953,-38.63724 23.96712,-76.55837 37.28742,-114.38535 11.55745,-30.89412 23.2489,-62.08379 40.24684,-90.49781 1.74019,-2.90893 3.68128,-5.69286 5.52192,-8.53929 5.09972,-6.5738 2.55399,-3.89696 7.31268,-8.3271 0,0 13.77462,-5.58772 13.77462,-5.58772 l 0,0 c -5.18132,4.15042 -2.43473,1.57943 -7.84451,8.11462 -1.92629,2.85098 -3.96284,5.63049 -5.77888,8.55293 -17.55601,28.2517 -29.39672,59.58906 -41.04908,90.58648 -13.18745,37.61564 -26.08776,75.37079 -36.46265,113.87828 -9.5876,36.44244 3.12226,-11.9833 -4.9677,19.16769 -0.56987,2.19432 -1.09906,4.40076 -1.75243,6.57168 -0.45966,1.52727 -0.3297,3.5301 -1.58426,4.51494 -4.51138,3.54149 -9.66001,6.31535 -14.97082,8.481 -0.73316,0.29896 -1.10634,-1.13298 -1.6595,-1.69946 -0.53821,-1.47652 -1.14907,-2.92855 -1.61462,-4.42956 -1.30817,-4.21771 -3.18771,-12.08374 -4.20808,-16.02364 -2.28771,-8.83341 -3.35011,-12.98212 -6.21696,-21.83556 -1.28584,-3.97094 -2.71347,-7.89455 -4.07021,-11.84183 -6.54755,-18.31684 -13.57095,-36.45795 -20.53153,-54.62132 0,0 13.09814,-7.29783 13.09814,-7.29783 z"
       inkscape:connector-curvature="0" />
    <path
       style="fill:#000000"
       id="path3205"
       d="m 494.36354,462.33685 c -0.94858,2.94838 -1.47109,6.25702 -0.66055,9.29729 1.02067,1.84259 3.00441,2.698 4.88367,3.422 1.81349,0.48614 3.7815,1.05982 5.68519,0.98365 1.08169,-0.0433 1.72157,-0.37608 2.71009,-0.75011 5.18723,-3.32834 -1.04319,0.69773 -10.84429,6.06199 -0.31585,0.17287 0.56403,-0.44825 0.83385,-0.68667 0.71418,-0.63106 1.21776,-1.30451 1.73065,-2.09966 1.04976,-1.35786 1.38184,-2.94695 1.56711,-4.61061 0.2427,-1.28702 -0.41201,-2.41503 -0.56685,-3.66996 0,0 13.54662,-6.73859 13.54662,-6.73859 l 0,0 c -0.7264,1.07296 1.2003,2.45861 0.52393,3.67596 -0.11958,1.82693 -0.2761,3.69402 -1.23995,5.30134 -0.56992,0.80642 -0.93226,1.71543 -1.59646,2.45642 -4.11929,4.5956 -10.11881,7.36355 -15.88969,9.48486 -3.04907,0.57269 -6.10477,0.0773 -8.98776,-1.04985 -2.26559,-1.03292 -4.44834,-2.2332 -5.5887,-4.565 -0.99092,-3.25829 -0.6116,-6.85443 0.24843,-10.10499 0,0 13.64471,-6.40807 13.64471,-6.40807 z"
       inkscape:connector-curvature="0" />
    <path
       style="fill:#000000"
       id="path3207"
       d="m 469.68507,464.71998 c 1.43467,2.71749 3.52403,4.97706 5.95704,6.8239 2.17802,1.5446 4.57627,2.68326 7.04157,3.68177 -0.77848,1.48946 3.13324,-1.40682 2.39262,-1.00002 -4.0965,2.25009 -8.06129,4.73542 -12.16727,6.96816 -0.31502,0.1713 0.52366,-0.49198 0.75752,-0.7638 0.27298,-0.3173 0.5065,-0.66652 0.75975,-0.99979 2.53665,-3.64386 4.55424,-7.61029 6.5223,-11.57937 4.79116,-10.72354 8.2401,-21.9925 11.53609,-33.24648 3.98194,-13.07078 6.81308,-26.4271 9.19308,-39.86791 1.01426,-6.3474 0.2681,-1.61914 1.06141,-6.76667 0.0908,-0.58937 0.22171,-1.1737 0.27635,-1.76752 0.0164,-0.17822 -0.0915,-0.70994 -0.0647,-0.53299 0.87119,5.75419 -1.01075,1.84379 12.36335,-5.50618 -4.22591,5.67351 -6.50493,12.57673 -8.99052,19.13164 -4.01291,10.24612 -7.17428,20.79507 -10.6074,31.24204 -0.58593,1.84372 -1.15447,3.69305 -1.7578,5.53114 -1.83518,5.591 -3.7341,11.1276 -5.20243,16.83268 -1.21795,4.73226 -1.38826,5.95061 -2.30884,10.64895 -0.54021,3.55821 -1.34015,7.09799 -1.33864,10.715 3.6e-4,0.86291 -0.0928,2.11585 0.72655,2.64989 1.89931,-0.28942 3.81391,-0.40805 5.73121,-0.50542 4.46575,-0.19096 8.93706,-0.16883 13.40585,-0.17571 6.13269,-0.0487 12.25441,0.79691 18.29008,1.8301 2.10674,0.51562 4.51607,0.35079 6.41375,1.55942 0.29074,0.18517 1.21993,1.05253 1.51888,1.32607 4.51733,3.47568 10.76243,-4.19897 -12.48164,8.60257 -0.39365,0.2168 -1.00347,-0.98353 -1.27219,-0.0119 11.90597,-8.87923 7.91012,-8.84762 14.41874,-8.46787 1.63639,0.0955 2.92848,-0.27198 4.51211,-0.69358 4.59715,-1.27819 8.86238,-3.3284 12.98845,-5.68645 -21.9205,13.31456 -7.20057,4.00786 -2.21293,0.66748 5.34023,-3.82114 10.9233,-6.88363 16.81192,-10.07044 0.38061,-0.20598 0.86115,-0.1882 1.29099,-0.13786 1.11957,0.13113 1.64367,0.69472 2.51599,1.32752 2.28383,2.6663 3.46217,6.13984 4.4074,9.47708 0.40176,1.10691 0.58408,2.28027 0.9582,3.39507 0.40157,1.19659 0.72105,1.4444 0.79591,1.36015 0.16854,-0.18967 0.28148,-0.87069 0.0535,-0.7593 -4.22759,2.06559 -8.25317,4.52125 -12.37975,6.78188 3.36302,-5.54828 3.45954,-12.41743 3.92157,-18.69474 1.04773,-11.80561 1.2953,-23.65737 2.44325,-35.455 0.92309,-9.48665 1.35529,-11.95983 2.64345,-21.353 1.93188,-12.17162 4.16407,-24.28352 6.87699,-36.30166 0.83164,-4.71703 0.36092,-2.28158 12.93863,-5.55569 0.85652,-0.22296 -0.81824,1.56988 -1.20643,2.36526 -0.56152,1.15052 -1.12261,2.30185 -1.6424,3.47181 -1.39694,3.14427 -2.69388,6.3321 -4.06579,9.48738 -5.77372,13.98857 -10.53308,28.35348 -16.11046,42.41783 -5.72566,14.04353 -13.27077,27.24934 -19.13213,41.23212 -1.08151,2.58003 -2.03666,5.21122 -3.05499,7.81684 -1.78459,5.06488 -3.90646,10.25327 -3.99062,15.71991 -0.005,0.3396 -0.0977,2.56686 0.90558,2.86606 0.27067,0.0807 0.5336,-0.18541 0.8004,-0.27811 5.65017,-3.24024 -5.39112,3.09794 -10.4012,5.77639 -0.52977,0.28321 0.98951,-0.68214 1.46821,-1.04506 1.35704,-1.02881 2.63854,-2.16664 3.92303,-3.28301 6.06443,-4.80758 12.64195,-10.13495 20.3961,-11.42058 0.47008,-0.0431 0.93865,-0.15001 1.41024,-0.12921 0.41519,0.0183 2.91542,0.51259 3.28781,0.58136 1.91915,0.35439 3.83318,0.60695 5.7723,0.82411 5.10547,0.37689 10.21826,0.52552 15.32701,0.86297 10.43763,1.16494 20.59399,3.87464 30.65553,6.78677 11.8972,3.60351 23.57099,7.88536 35.33087,11.90256 8.80676,2.85414 17.76032,5.41136 26.84517,7.23356 6.48145,1.30002 8.1687,1.41387 14.74095,2.28831 2.53518,0.24011 5.06712,0.5174 7.60555,0.72034 6.0625,0.48471 9.51177,0.71044 15.63854,0.44158 9.27083,-0.40683 18.38596,-1.8994 27.51825,-3.43436 12.80989,-2.73305 25.47682,-6.50166 37.26674,-12.2883 2.5808,-1.26668 5.14243,-2.59239 7.57119,-4.13062 2.03686,-1.29001 -4.26167,2.25608 -6.39251,3.38412 3.39357,-2.37104 6.92439,-4.7437 9.57763,-7.98207 0.36303,-0.4431 1.38778,-2.56662 0.96229,-1.57926 -2.44286,0.69305 -5.10018,0.72986 -7.63458,0.87663 -2.77082,0.14085 -5.54569,0.16706 -8.3194,0.19214 0,0 12.11532,-8.82764 12.11532,-8.82764 l 0,0 c 2.77122,-0.0507 5.54388,-0.0965 8.31024,-0.28195 1.74563,-0.12815 5.66952,-0.78087 7.24411,-0.46127 0.37015,0.0751 0.70151,0.28018 1.05226,0.42027 0.28486,0.34125 0.68115,0.61446 0.85458,1.02375 0.41925,0.98945 -0.28545,2.09846 -0.79731,2.82741 -2.49026,3.54647 -6.28629,5.96245 -9.69563,8.4878 -5.6683,3.36326 -18.35272,11.31528 -26.22475,15.05404 -11.89174,5.64788 -24.60452,9.35991 -37.47204,11.99401 -9.21225,1.50718 -18.40114,2.97536 -27.75036,3.3136 -5.98483,0.21652 -9.82444,-0.0431 -15.74534,-0.5441 -2.55167,-0.21589 -5.09638,-0.50749 -7.64457,-0.76123 -2.49774,-0.34645 -5.00358,-0.63878 -7.49322,-1.03935 -11.66185,-1.87633 -23.1034,-5.02533 -34.32328,-8.66947 -11.74338,-4.00817 -23.40052,-8.2848 -35.2938,-11.83896 -10.0474,-2.8523 -20.20829,-5.49195 -30.64773,-6.40121 -5.143,-0.31261 -10.29904,-0.38758 -15.42863,-0.89103 -3.37079,-0.4212 -6.8252,-1.45798 -10.20913,-0.82681 -5.13337,1.53584 -10.6573,5.80657 9.41101,-6.00419 0.41822,-0.24613 -0.86612,0.44012 -1.28034,0.69293 -1.1546,0.70469 -1.54774,1.07957 -2.60969,1.93429 -5.95829,5.33809 -13.43539,12.25175 -21.27426,12.8643 -0.4653,-0.22425 -1.00967,-0.32979 -1.3959,-0.67275 -1.1709,-1.03973 -1.29901,-2.42708 -1.2902,-3.91943 0.0333,-5.6473 2.23875,-11.00612 4.09568,-16.22636 1.01947,-2.63178 1.97335,-5.28991 3.05842,-7.89532 5.82222,-13.97999 13.35775,-27.16686 19.13351,-41.16728 5.5822,-14.02492 10.29898,-28.35969 15.91099,-42.37414 0.73765,-1.71632 1.49577,-3.42399 2.21293,-5.14897 3.84829,-9.25619 -0.26447,0.15487 3.28951,-7.77412 0.36328,-0.81048 0.33506,-1.94702 1.07524,-2.43792 14.17929,-9.404 13.35818,-12.98598 14.36005,-7.0604 -0.5101,1.89924 -1.09412,3.779 -1.56287,5.68887 -2.48651,10.13094 -3.95177,20.49214 -5.90625,30.72898 -1.3341,9.50151 -1.74444,11.67517 -2.66581,21.27388 -1.12689,11.73972 -1.27273,23.52976 -2.16581,35.28595 -0.35007,6.55002 -0.51176,13.27795 -3.26116,19.36101 -4.71063,2.88531 -12.39441,11.85427 -15.02314,6.99578 -0.78135,-1.44409 -0.90782,-3.11344 -1.46573,-4.63727 -0.79941,-2.95205 -1.78696,-6.17846 -3.86403,-8.47993 -0.82038,-0.36899 -0.92092,-0.58713 -1.82936,-0.34598 -0.36086,0.0958 -1.34584,0.64244 -1.02513,0.45129 21.16086,-12.61233 13.18422,-8.0296 8.88171,-4.88592 -7.57569,5.15059 -15.17157,10.14805 -23.44373,14.22835 -4.22431,2.26716 -8.59745,4.24479 -13.27875,5.37426 -1.68241,0.31851 -3.15061,0.51603 -4.85757,0.31655 -0.36906,-0.0431 -0.7393,-0.089 -1.10115,-0.17346 -0.28808,-0.0673 -1.06892,-0.0902 -0.84211,-0.28017 3.80237,-3.18398 7.91827,-5.97362 11.87741,-8.96044 0.85355,0.40028 1.85246,0.60794 1.72651,0.70781 -11.16835,8.85557 -8.2216,11.6507 -12.848,7.82343 -2.05689,-1.76505 -4.82017,-1.73312 -7.37915,-2.24678 -5.97536,-1.01595 -12.03498,-1.76673 -18.10634,-1.64233 -4.48272,0.0333 -8.9689,0.0489 -13.44577,0.30539 -2.15932,0.14356 -4.58761,0.75493 -6.49062,-0.53915 -0.22786,-0.27813 -0.51267,-0.51805 -0.68358,-0.83438 -1.64641,-3.04719 0.55877,-10.77028 0.872,-13.94349 1.07906,-5.56123 2.28265,-11.04057 3.856,-16.4875 1.99741,-6.91499 1.37896,-4.34918 3.61616,-11.1615 0.60441,-1.84043 1.16198,-3.69591 1.74298,-5.54387 3.44946,-10.44508 6.56244,-21.01248 10.54067,-31.27547 2.45021,-6.64622 4.77514,-13.46982 8.53245,-19.51352 4.55477,-2.79664 8.89233,-5.98253 13.66429,-8.38991 0.93375,-0.47107 1.44449,1.61531 1.43384,1.97311 -0.018,0.60569 -0.23837,1.1883 -0.34771,1.78432 -0.37475,2.04276 -0.84973,4.9013 -1.17995,6.85088 -2.49381,13.49695 -5.3565,26.92443 -9.29686,40.08476 -3.21072,11.27141 -6.60096,22.53215 -11.15332,33.34705 -1.90998,4.01938 -3.90048,8.00261 -6.2959,11.75983 -0.24075,0.35412 -0.48586,0.70532 -0.72225,1.06237 -0.21902,0.3308 -0.31094,0.78526 -0.64389,1.001 -4.28875,2.77885 -10.46582,9.78628 -16.7369,8.08552 -2.53918,-1.11938 -5.0261,-2.34621 -7.25054,-4.02835 -2.52803,-2.07287 -4.72896,-4.49965 -6.31533,-7.37905 0,0 13.10374,-7.46107 13.10374,-7.46107 z"
       inkscape:connector-curvature="0" />
    <path
       style="fill:#000000"
       id="path3209"
       d="m 538.60002,447.72126 c 5.19136,-0.91195 10.45494,-1.26742 15.71148,-1.54093 6.55049,-0.30441 13.04301,1.02949 19.53619,1.7292 8.66649,0.70349 17.38886,1.22285 26.0784,0.75414 4.36062,-0.1975 8.56055,-2.02671 12.92628,-1.35994 0,0 -12.26309,8.73093 -12.26309,8.73093 l 0,0 c -4.26066,-0.1379 -8.38435,1.36884 -12.64965,1.41716 -8.74963,0.28638 -17.52183,-0.13398 -26.23859,-0.91761 -6.45329,-0.71462 -12.92075,-1.94724 -19.43647,-1.49857 -5.28118,0.31288 -10.5437,0.8075 -15.76747,1.66457 0,0 12.10292,-8.97895 12.10292,-8.97895 z"
       inkscape:connector-curvature="0" />
    <path
       style="fill:#000000"
       id="path3211"
       d="m 648.19302,467.60473 c 2.3923,-5.52856 5.36839,-9.50302 9.77207,-13.5919 7.66121,-5.33082 1.76024,-1.36087 18.48765,-10.65107 0,0 -11.68168,9.2978 -11.68168,9.2978 l 0,0 c 10.76681,-6.53391 13.11821,-7.94208 7.02217,-4.27752 -4.36845,3.6944 -7.73854,7.62543 -9.86189,13.00704 0,0 -13.73832,6.21565 -13.73832,6.21565 z"
       inkscape:connector-curvature="0" />
  </g>
</svg>
